<?xml version="1.0" encoding="utf-8"?>
<!-- Generator: Adobe Illustrator 16.0.0, SVG Export Plug-In . SVG Version: 6.00 Build 0)  -->
<!DOCTYPE svg PUBLIC "-//W3C//DTD SVG 1.1//EN" "http://www.w3.org/Graphics/SVG/1.1/DTD/svg11.dtd">
<svg version="1.1" id="Layer_1" xmlns="http://www.w3.org/2000/svg" xmlns:xlink="http://www.w3.org/1999/xlink" x="0px" y="0px"
	 width="64.774px" height="56px" viewBox="31.732 28.476 64.774 56" enable-background="new 31.732 28.476 64.774 56"
	 xml:space="preserve">
<g>
	<g>
		<rect x="52.119" y="73.477" fill="#B2E0E6" width="24" height="4"/>
		<path fill="#FBB758" d="M76.119,73.477h-24c0-8-8-12-8-32c2,0,38,0,40,0C84.119,61.476,76.119,65.477,76.119,73.477z"/>
		<path fill="#FFFFFF" d="M85.119,83.477c-8,0-34,0-42,0s-10-6-10-6h62C95.119,77.477,93.119,83.477,85.119,83.477z"/>
		<path fill="#F08B21" d="M88.119,67.477v-20h1c1.656,0,3,1.343,3,3v8v6c0,1.657-1.344,3-3,3H88.119z"/>
		<path fill="none" stroke="#4D5152" stroke-width="2" stroke-miterlimit="10" d="M85.119,83.477c-8,0-34,0-42,0s-10-6-10-6h62
			C95.119,77.477,93.119,83.477,85.119,83.477z"/>
		<path fill="none" stroke="#4D5152" stroke-width="2" stroke-miterlimit="10" d="M76.119,73.477h-24c0-8-8-12-8-32c2,0,38,0,40,0
			C84.119,61.476,76.119,65.477,76.119,73.477z"/>
		<path fill="none" stroke="#4D5152" stroke-width="2" stroke-miterlimit="10" d="M88.119,67.477v-20h1c1.656,0,3,1.343,3,3v8v6
			c0,1.657-1.344,3-3,3H88.119z"/>
		<line fill="none" stroke="#4D5152" stroke-width="2" stroke-miterlimit="10" x1="57.119" y1="41.476" x2="57.119" y2="47.476"/>
		<rect x="54.119" y="47.476" fill="#B2E0E6" width="6" height="8"/>
		<rect x="54.119" y="47.476" fill="none" stroke="#4D5152" stroke-width="2" stroke-miterlimit="10" width="6" height="8"/>
		<line fill="none" stroke="#4D5152" stroke-width="2" stroke-miterlimit="10" x1="88.119" y1="47.476" x2="84.119" y2="47.476"/>
		<line fill="none" stroke="#4D5152" stroke-width="2" stroke-miterlimit="10" x1="88.119" y1="67.477" x2="78.119" y2="67.477"/>
		<line fill="none" stroke="#4D5152" stroke-width="2" stroke-miterlimit="10" x1="52.119" y1="73.477" x2="52.119" y2="77.477"/>
		<line fill="none" stroke="#4D5152" stroke-width="2" stroke-miterlimit="10" x1="76.119" y1="73.477" x2="76.119" y2="77.477"/>
		<line fill="none" stroke="#4D5152" stroke-width="2" stroke-miterlimit="10" x1="63.119" y1="69.477" x2="65.119" y2="69.477"/>
		<line fill="none" stroke="#4D5152" stroke-width="2" stroke-miterlimit="10" x1="59.119" y1="69.477" x2="61.119" y2="69.477"/>
		<line fill="none" stroke="#4D5152" stroke-width="2" stroke-miterlimit="10" x1="67.119" y1="69.477" x2="69.119" y2="69.477"/>
		<path fill="none" stroke="#4D5152" stroke-width="2" stroke-miterlimit="10" d="M69.119,38.476c0-1,2-3,2-5s-2-4-2-5"/>
		<path fill="none" stroke="#4D5152" stroke-width="2" stroke-miterlimit="10" d="M63.119,38.476c0-1,2-3,2-5s-2-4-2-5"/>
		<path fill="none" stroke="#4D5152" stroke-width="2" stroke-miterlimit="10" d="M57.119,38.476c0-1,2-3,2-5s-2-4-2-5"/>
	</g>
</g>
</svg>
