<?xml version="1.0" encoding="utf-8"?>
<!-- Generator: Adobe Illustrator 16.0.0, SVG Export Plug-In . SVG Version: 6.00 Build 0)  -->
<!DOCTYPE svg PUBLIC "-//W3C//DTD SVG 1.1//EN" "http://www.w3.org/Graphics/SVG/1.1/DTD/svg11.dtd">
<svg version="1.1" id="Layer_1" xmlns="http://www.w3.org/2000/svg" xmlns:xlink="http://www.w3.org/1999/xlink" x="0px" y="0px"
	 width="64px" height="60px" viewBox="0 0 64 60" enable-background="new 0 0 64 60" xml:space="preserve">
<g>
	<g>
		<rect x="1" fill="#FFFFFF" width="63" height="59"/>
		<polygon fill="#F08B21" points="64,0 57,0 51,4 49,11 45,10 40,15 35,13 32,19 27,19 24,25 17,29 11,27 7,38 4,42 4,56 64,56 		
			"/>
		<polyline fill="#B2E0E6" points="64,56 4,56 4,48 9,41 14,41 18,35 24,35 30,29 34,30 37,30 41,22 48,22 52,19 56,14 59,15 60,10 
			64,9 		"/>
		<polyline fill="none" stroke="#4D5152" stroke-width="2" stroke-linejoin="round" stroke-miterlimit="10" points="5,53 5,48 9,41 
			14,41 18,35 24,35 30,29 34,30 37,30 41,22 48,22 52,19 56,14 59,15 60,10 64,10 		"/>
		<polygon fill="#77CCD4" points="64,56 4,56 4,53 8,51 13,45 18,46 21,42 27,45 35,36 41,39 46,36 48,28 54,30 56,24 60,26 64,22 
					"/>
		<polyline fill="none" stroke="#4D5152" stroke-width="2" stroke-linejoin="round" stroke-miterlimit="10" points="1,0 1,59 64,59 
					"/>
		
			<line fill="none" stroke="#4D5152" stroke-width="2" stroke-linejoin="round" stroke-miterlimit="10" x1="5" y1="2" x2="5" y2="0"/>
		
			<line fill="none" stroke="#4D5152" stroke-width="2" stroke-linejoin="round" stroke-miterlimit="10" x1="5" y1="6" x2="5" y2="4"/>
		
			<line fill="none" stroke="#4D5152" stroke-width="2" stroke-linejoin="round" stroke-miterlimit="10" x1="5" y1="10" x2="5" y2="8"/>
		
			<line fill="none" stroke="#4D5152" stroke-width="2" stroke-linejoin="round" stroke-miterlimit="10" x1="5" y1="14" x2="5" y2="12"/>
		
			<line fill="none" stroke="#4D5152" stroke-width="2" stroke-linejoin="round" stroke-miterlimit="10" x1="5" y1="18" x2="5" y2="16"/>
		
			<line fill="none" stroke="#4D5152" stroke-width="2" stroke-linejoin="round" stroke-miterlimit="10" x1="5" y1="22" x2="5" y2="20"/>
		
			<line fill="none" stroke="#4D5152" stroke-width="2" stroke-linejoin="round" stroke-miterlimit="10" x1="5" y1="26" x2="5" y2="24"/>
		
			<line fill="none" stroke="#4D5152" stroke-width="2" stroke-linejoin="round" stroke-miterlimit="10" x1="5" y1="30" x2="5" y2="28"/>
	</g>
</g>
</svg>
