<?xml version="1.0" encoding="utf-8"?>
<!-- Generator: Adobe Illustrator 16.0.0, SVG Export Plug-In . SVG Version: 6.00 Build 0)  -->
<!DOCTYPE svg PUBLIC "-//W3C//DTD SVG 1.1//EN" "http://www.w3.org/Graphics/SVG/1.1/DTD/svg11.dtd">
<svg version="1.1" id="Layer_1" xmlns="http://www.w3.org/2000/svg" xmlns:xlink="http://www.w3.org/1999/xlink" x="0px" y="0px"
	 width="58px" height="56.532px" viewBox="0 0 58 56.532" enable-background="new 0 0 58 56.532" xml:space="preserve">
<g>
	<g>
		<path fill="#FBB758" d="M15,1C7.268,1,1,7.268,1,15c0,2.573,0.659,5.005,1.905,7.057C8.375,31.062,29,55,29,55V15
			C29,7.268,22.732,1,15,1z"/>
		<path fill="#F08B21" d="M57,15c0-7.732-6.268-14-14-14S29,7.268,29,15v40c0,0,20.625-23.938,26.095-32.943
			C56.341,20.005,57,17.573,57,15z"/>
		<path fill="none" stroke="#4D5152" stroke-width="2" stroke-miterlimit="10" d="M29,15c0-7.732,6.268-14,14-14s14,6.268,14,14
			c0,2.573-0.659,5.005-1.905,7.057C49.625,31.062,29,55,29,55S8.375,31.062,2.905,22.057C1.659,20.005,1,17.573,1,15
			C1,7.268,7.268,1,15,1S29,7.268,29,15z"/>
		<path fill="none" stroke="#4D5152" stroke-width="2" stroke-miterlimit="10" d="M7,15c0-4.418,3.582-8,8-8"/>
		<path fill="none" stroke="#4D5152" stroke-width="2" stroke-miterlimit="10" d="M43,7c4.418,0,8,3.582,8,8"/>
		<line fill="none" stroke="#4D5152" stroke-width="2" stroke-miterlimit="10" x1="29" y1="18" x2="29" y2="20"/>
		<line fill="none" stroke="#4D5152" stroke-width="2" stroke-miterlimit="10" x1="29" y1="22" x2="29" y2="24"/>
		<line fill="none" stroke="#4D5152" stroke-width="2" stroke-miterlimit="10" x1="29" y1="26" x2="29" y2="28"/>
	</g>
</g>
</svg>
