<?xml version="1.0" encoding="utf-8"?>
<!-- Generator: Adobe Illustrator 16.0.0, SVG Export Plug-In . SVG Version: 6.00 Build 0)  -->
<!DOCTYPE svg PUBLIC "-//W3C//DTD SVG 1.1//EN" "http://www.w3.org/Graphics/SVG/1.1/DTD/svg11.dtd">
<svg version="1.1" id="Layer_1" xmlns="http://www.w3.org/2000/svg" xmlns:xlink="http://www.w3.org/1999/xlink" x="0px" y="0px"
	 width="94.307px" height="94.308px" viewBox="0 0 94.307 94.308" enable-background="new 0 0 94.307 94.308" xml:space="preserve">
<g>
	<g>
		<path fill="#FFFFFF" d="M33.399,19.467c-1.656,0-3,1.344-3,3s1.344,3,3,3v10c-9,2-15,10.604-15,19c0,10.493,8.507,19,19,19
			s19-8.507,19-19c0-8.396-6-17-15-19v-10c1.656,0,3-1.344,3-3s-1.344-3-3-3H33.399"/>
		
			<line fill="none" stroke="#4D5152" stroke-width="2" stroke-linejoin="round" stroke-miterlimit="10" x1="33.399" y1="25.467" x2="41.399" y2="25.467"/>
		<path fill="none" stroke="#4D5152" stroke-width="2" stroke-linejoin="round" stroke-miterlimit="10" d="M33.399,19.467
			c-1.656,0-3,1.344-3,3s1.344,3,3,3v10c-9,2-15,10.604-15,19c0,10.493,8.507,19,19,19s19-8.507,19-19c0-8.396-6-17-15-19v-10
			c1.656,0,3-1.344,3-3s-1.344-3-3-3H33.399"/>
		<path fill="#77CCD4" d="M52.399,54.467c0,8.284-6.716,15-15,15s-15-6.716-15-15"/>
		<path fill="#FFFFFF" d="M52.399,27.467h8v22l16,21c0,0,0,3-3,3s-29.001,0-33,0c-4,0-4-3-4-3l16-21V27.467z"/>
		<polygon fill="#F08B21" points="59.399,54.467 53.399,54.467 41.399,69.467 41.399,70.467 71.399,70.467 71.399,69.467 		"/>
		<path fill="none" stroke="#4D5152" stroke-width="2" stroke-linejoin="round" stroke-miterlimit="10" d="M52.399,27.467h8v22
			l16,21c0,0,0,3-3,3s-29.001,0-33,0c-4,0-4-3-4-3l16-21V27.467z"/>
		
			<line fill="none" stroke="#4D5152" stroke-width="2" stroke-linejoin="round" stroke-miterlimit="10" x1="57.399" y1="31.467" x2="59.399" y2="31.467"/>
		
			<line fill="none" stroke="#4D5152" stroke-width="2" stroke-linejoin="round" stroke-miterlimit="10" x1="57.399" y1="35.467" x2="59.399" y2="35.467"/>
		
			<line fill="none" stroke="#4D5152" stroke-width="2" stroke-linejoin="round" stroke-miterlimit="10" x1="57.399" y1="39.467" x2="59.399" y2="39.467"/>
		
			<line fill="none" stroke="#4D5152" stroke-width="2" stroke-linejoin="round" stroke-miterlimit="10" x1="57.399" y1="43.467" x2="59.399" y2="43.467"/>
		
			<line fill="none" stroke="#4D5152" stroke-width="2" stroke-linejoin="round" stroke-miterlimit="10" x1="57.399" y1="47.467" x2="59.399" y2="47.467"/>
		<path fill="none" stroke="#4D5152" stroke-width="2" stroke-linejoin="round" stroke-miterlimit="10" d="M23.399,54.467
			c0-7.732,6.268-14,14-14"/>
	</g>
</g>
<circle fill="none" stroke="#6D6E70" stroke-width="2" stroke-miterlimit="10" cx="47.154" cy="47.154" r="46.154"/>
<line fill="none" stroke="#6D6E70" stroke-width="2" stroke-linecap="round" stroke-miterlimit="10" x1="6.881" y1="6.42" x2="85.911" y2="85.448"/>
</svg>
