<?xml version="1.0" encoding="utf-8"?>
<!-- Generator: Adobe Illustrator 16.0.0, SVG Export Plug-In . SVG Version: 6.00 Build 0)  -->
<!DOCTYPE svg PUBLIC "-//W3C//DTD SVG 1.1//EN" "http://www.w3.org/Graphics/SVG/1.1/DTD/svg11.dtd">
<svg version="1.1" id="Layer_1" xmlns="http://www.w3.org/2000/svg" xmlns:xlink="http://www.w3.org/1999/xlink" x="0px" y="0px"
	 width="42.134px" height="64px" viewBox="42.853 24.679 42.134 64" enable-background="new 42.853 24.679 42.134 64"
	 xml:space="preserve">
<g>
	<g>
		<g>
			<path fill="none" stroke="#4D5152" stroke-width="2" stroke-miterlimit="10" d="M64.986,44.679h1c2.762,0,5,2.238,5,5
				c0,2.762-2.238,5-5,5h-6c-2.762,0-5,2.238-5,5v1"/>
		</g>
		<path fill="#B2E0E6" d="M82.986,37.679c0,0-0.656,6.657-3,9c-2.344,2.344-9,3-9,3s0.656-6.657,3-9
			C76.328,38.335,82.986,37.679,82.986,37.679z"/>
		<path fill="#B2E0E6" d="M53.986,39.679c0,0-4.777-0.535-7.121-2.879c-2.342-2.343-2.879-7.121-2.879-7.121
			s4.779,0.535,7.121,2.879C53.451,34.9,53.986,39.679,53.986,39.679z"/>
		<path fill="#FFFFFF" d="M80.986,60.679c1.656,0,3,1.344,3,3c0,1.656-1.344,3-3,3h-34c-1.656,0-3-1.345-3-3c0-1.656,1.344-3,3-3
			H80.986z"/>
		<polyline fill="#FBB758" points="78.986,66.68 74.986,87.68 52.986,87.68 48.986,66.68 		"/>
		<polyline fill="none" stroke="#4D5152" stroke-width="2" stroke-miterlimit="10" points="78.986,66.68 74.986,87.68 52.986,87.68 
			48.986,66.68 		"/>
		<path fill="#FFFFFF" d="M60.986,60.679v-33c0-1.104,0.895-2,2-2c1.104,0,2,0.896,2,2v33"/>
		<path fill="none" stroke="#4D5152" stroke-width="2" stroke-miterlimit="10" d="M80.986,60.679c1.656,0,3,1.344,3,3
			c0,1.656-1.344,3-3,3h-34c-1.656,0-3-1.345-3-3c0-1.656,1.344-3,3-3H80.986z"/>
		<path fill="none" stroke="#4D5152" stroke-width="2" stroke-miterlimit="10" d="M70.986,29.679c0,2.762-2.238,5-5,5"/>
		<g>
			<path fill="none" stroke="#4D5152" stroke-width="2" stroke-miterlimit="10" d="M64.986,44.679h-5c-2.762,0-5-2.24-5-5.001
				c0-2.762,2.238-5,5-5v0.001h1"/>
		</g>
		<path fill="none" stroke="#4D5152" stroke-width="2" stroke-miterlimit="10" d="M60.986,60.679v-33c0-1.104,0.895-2,2-2
			c1.104,0,2,0.896,2,2v33"/>
		<path fill="none" stroke="#4D5152" stroke-width="2" stroke-miterlimit="10" d="M82.986,37.679c0,0-0.656,6.657-3,9
			c-2.344,2.344-9,3-9,3s0.656-6.657,3-9C76.328,38.335,82.986,37.679,82.986,37.679z"/>
		<path fill="none" stroke="#4D5152" stroke-width="2" stroke-miterlimit="10" d="M53.986,39.679c0,0-4.777-0.535-7.121-2.879
			c-2.342-2.343-2.879-7.121-2.879-7.121s4.779,0.535,7.121,2.879C53.451,34.9,53.986,39.679,53.986,39.679z"/>
		<line fill="none" stroke="#4D5152" stroke-width="2" stroke-miterlimit="10" x1="49.986" y1="72.68" x2="61.986" y2="72.68"/>
		<line fill="none" stroke="#4D5152" stroke-width="2" stroke-miterlimit="10" x1="50.986" y1="76.68" x2="57.986" y2="76.68"/>
		<line fill="none" stroke="#4D5152" stroke-width="2" stroke-miterlimit="10" x1="61.986" y1="63.679" x2="63.986" y2="63.679"/>
		<line fill="none" stroke="#4D5152" stroke-width="2" stroke-miterlimit="10" x1="65.986" y1="63.679" x2="67.986" y2="63.679"/>
		<line fill="none" stroke="#4D5152" stroke-width="2" stroke-miterlimit="10" x1="57.986" y1="63.679" x2="59.986" y2="63.679"/>
	</g>
</g>
</svg>
