<?xml version="1.0" encoding="utf-8"?>
<!-- Generator: Adobe Illustrator 16.0.0, SVG Export Plug-In . SVG Version: 6.00 Build 0)  -->
<!DOCTYPE svg PUBLIC "-//W3C//DTD SVG 1.1//EN" "http://www.w3.org/Graphics/SVG/1.1/DTD/svg11.dtd">
<svg version="1.1" id="Layer_1" xmlns="http://www.w3.org/2000/svg" xmlns:xlink="http://www.w3.org/1999/xlink" x="0px" y="0px"
	 width="64px" height="64px" viewBox="32.846 24.294 64 64" enable-background="new 32.846 24.294 64 64" xml:space="preserve">
<g>
	<g>
		<circle fill="#FBB758" cx="64.846" cy="57.294" r="21"/>
		<path fill="#FFFFFF" d="M72.846,39.294c0,6.627-8,14-8,14s-8-7.373-8-14s8-14,8-14S72.846,32.667,72.846,39.294z"/>
		<path fill="#FFFFFF" d="M58.846,54.294c3.535,3.535,6,11,6,11s-6.465,0.535-10-3c-3.535-3.535-5-11-5-11
			S55.311,50.759,58.846,54.294z"/>
		<path fill="#FFFFFF" d="M70.846,54.294c-3.535,3.535-6,11-6,11s6.465,0.535,10-3s5-11,5-11S74.381,50.759,70.846,54.294z"/>
		<path fill="#FFFFFF" d="M39.846,58.294h4l10,10c2,2,2,5,2,5v8h-11v-2c0,0,0-2-2-4l-7-7c-2-2-2-4-2-4v-16c0-1.656,1.344-3,3-3
			c1.656,0,3,1.344,3,3v8V58.294z"/>
		<path fill="#FFFFFF" d="M89.846,58.294h-4l-10,10c-2,2-2,5-2,5v8h11v-2c0,0,0-2,2-4l7-7c2-2,2-4,2-4v-16c0-1.656-1.344-3-3-3
			s-3,1.344-3,3v8V58.294z"/>
		<rect x="42.846" y="81.294" fill="#B2E0E6" width="15" height="6"/>
		<rect x="71.846" y="81.294" fill="#B2E0E6" width="15" height="6"/>
		<path fill="none" stroke="#4D5152" stroke-width="2" stroke-miterlimit="10" d="M46.846,69.294l-7-7v-1c0-1.656,1.344-3,3-3h1
			l10,10c2,2,2,5,2,5v8h-11v-2c0,0,0-2-2-4l-7-7c-2-2-2-4-2-4v-16c0-1.656,1.344-3,3-3c1.656,0,3,1.344,3,3v8"/>
		<rect x="42.846" y="81.294" fill="none" stroke="#4D5152" stroke-width="2" stroke-miterlimit="10" width="15" height="6"/>
		<path fill="none" stroke="#4D5152" stroke-width="2" stroke-miterlimit="10" d="M82.846,69.294l7-7v-1c0-1.656-1.344-3-3-3h-1
			l-10,10c-2,2-2,5-2,5v8h11v-2c0,0,0-2,2-4l7-7c2-2,2-4,2-4v-16c0-1.656-1.344-3-3-3s-3,1.344-3,3v8"/>
		<rect x="71.846" y="81.294" fill="none" stroke="#4D5152" stroke-width="2" stroke-miterlimit="10" width="15" height="6"/>
		<line fill="none" stroke="#4D5152" stroke-width="2" stroke-miterlimit="10" x1="64.846" y1="78.294" x2="64.846" y2="38.294"/>
		<path fill="none" stroke="#4D5152" stroke-width="2" stroke-linecap="round" stroke-linejoin="round" stroke-miterlimit="10" d="
			M72.846,39.294c0,6.627-8,14-8,14s-8-7.373-8-14s8-14,8-14S72.846,32.667,72.846,39.294z"/>
		<path fill="none" stroke="#4D5152" stroke-width="2" stroke-linecap="round" stroke-linejoin="round" stroke-miterlimit="10" d="
			M58.846,54.294c3.535,3.535,6,11,6,11s-6.465,0.535-10-3c-3.535-3.535-5-11-5-11S55.311,50.759,58.846,54.294z"/>
		<path fill="none" stroke="#4D5152" stroke-width="2" stroke-linecap="round" stroke-linejoin="round" stroke-miterlimit="10" d="
			M70.846,54.294c-3.535,3.535-6,11-6,11s6.465,0.535,10-3s5-11,5-11S74.381,50.759,70.846,54.294z"/>
	</g>
</g>
</svg>
